# xmcd
#
# Track frame offsets:
#  150
#  20309
#  40715
#  60625
#  88105
#  110243
#  127815
#  146868
#  163590
#  194123
#  214098
#  234481
#
# Disc length: 3602 seconds
#
# Revision: 0
# Processed by: cddbd v1.5.1PL2 Copyright (c) Steve Scherf et al.
# Submitted via: Collectorz.com_Music_Collector 6.11
#
DISCID=ac0e100c
DTITLE=Various Artist - Songs of Eric Clapton - This Ain't No Tribute
DYEAR=1999
DGENRE=Blues
TTITLE0=Larry McCray - Miss You
TTITLE1=Koko Taylor - Blues Power
TTITLE2=Otis Clay - Wonderful Tonight
TTITLE3=Carl Weathersby - Lay Down Sally
TTITLE4=Buddy Guy - Strange Brew
TTITLE5=Bo Diddley - Before You Accuse Me
TTITLE6=Joe Louis Walker with James Cotton - Roll It Over
TTITLE7=Honeyboy Edwards with James Cotton - Crossroads
TTITLE8=Otis Rush - Old Love
TTITLE9=Pinetop Perkins - Too Bad
TTITLE10=Ann Peebles - Tears In Heaven
TTITLE11=Eric Gales - Layla
EXTD=
EXTT0=
EXTT1=
EXTT2=
EXTT3=
EXTT4=
EXTT5=
EXTT6=
EXTT7=
EXTT8=
EXTT9=
EXTT10=
EXTT11=
PLAYORDER=
